<svg version="1.1" xmlns="http://www.w3.org/2000/svg" xmlns:xlink="http://www.w3.org/1999/xlink" viewBox="0 0 172 172"><g transform=""><g fill="none" fill-rule="nonzero" stroke="none" stroke-width="1" stroke-linecap="butt" stroke-linejoin="miter" stroke-miterlimit="10" stroke-dasharray="" stroke-dashoffset="0" font-family="none" font-weight="none" font-size="none" text-anchor="none" style="mix-blend-mode: normal"><path d="M0,172v-172h172v172z" fill="none"></path><path d="M43,172c-23.74824,0 -43,-19.25176 -43,-43v-86c0,-23.74824 19.25176,-43 43,-43h86c23.74824,0 43,19.25176 43,43v86c0,23.74824 -19.25176,43 -43,43z" fill="#3498db"></path><g><path d="M98.44068,30.86227c-4.09927,0 -7.42239,3.32312 -7.42239,7.42239c0,4.09927 3.32312,7.42239 7.42239,7.42239c4.09927,0 7.42239,-3.32312 7.42239,-7.42239c0,-4.09927 -3.32312,-7.42239 -7.42239,-7.42239zM98.44068,126.29295c-4.09927,0 -7.42239,3.32312 -7.42239,7.42239c0,4.09927 3.32312,7.42239 7.42239,7.42239c4.09927,0 7.42239,-3.32312 7.42239,-7.42239c0,-4.09927 -3.32312,-7.42239 -7.42239,-7.42239zM79.35455,45.91911c0,-5.3017 -4.24136,-9.54307 -9.54307,-9.54307c-5.3017,0 -9.54307,4.24136 -9.54307,9.54307v0c-1.80258,-1.37844 -3.92326,-2.12068 -6.36205,-2.12068c-5.83187,0 -10.60341,4.77153 -10.60341,10.60341c0,1.16637 0.21207,2.22672 0.53017,3.18102c-0.21207,0 -0.3181,0 -0.53017,0c-6.46808,0 -11.66375,5.19567 -11.66375,11.66375c0,2.54482 0.74224,4.77153 2.12068,6.68015c-4.45343,2.86292 -7.42239,7.74049 -7.42239,13.46633c0,5.61981 2.96895,10.60341 7.31635,13.3603c-1.27241,2.33275 -2.01465,4.9836 -2.01465,7.84652c0,8.80083 7.10428,15.90511 15.90511,15.90511c0.3181,0 0.6362,0 0.95431,0c2.12068,6.14998 8.05859,10.60341 14.95081,10.60341c8.80083,0 15.90511,-7.10428 15.90511,-15.90511c0,-8.6948 0,-69.9825 0,-75.2842z" fill="#ffffff"></path><path d="M69.81148,33.19502c-5.40774,0 -9.9672,3.28706 -11.87582,8.05859c-1.27241,-0.42414 -2.65085,-0.6362 -4.0293,-0.6362c-7.63445,0 -13.78443,6.14998 -13.78443,13.78443c0,0 0,0 0,0.10603c-6.68015,1.48448 -11.76978,7.42239 -11.76978,14.52667c0,2.12068 0.42414,4.13533 1.27241,6.04394c-4.0293,3.60516 -6.46808,8.80083 -6.46808,14.3146c0,0.6362 0,1.16637 0.10603,1.69655c0,0.10603 0,0.21207 0,0.3181c0.10603,0.53017 0.10603,1.16637 0.21207,1.69655c0,0.10603 0,0.10603 0,0.21207c0.10603,0.53017 0.21207,1.06034 0.42414,1.59051v0.10603c0.21207,0.53017 0.42414,1.06034 0.6362,1.69655c0,0 0,0.10603 0.10603,0.10603c0.42414,1.06034 1.06034,2.12068 1.69655,3.07499c0,0 0,0.10603 0.10603,0.10603c0.6362,0.95431 1.37844,1.80258 2.22672,2.65085c0.10603,0.10603 0.10603,0.10603 0.21207,0.21207c0.42414,0.3181 0.74224,0.74224 1.16638,1.06034c0.10603,0.10603 0.21207,0.21207 0.3181,0.21207c0.3181,0.21207 0.6362,0.42414 0.95431,0.6362c0.21207,0.10603 0.3181,0.21207 0.53017,0.42414l0.10603,0.10603c0.10603,0 0.10603,0.10603 0.21207,0.10603c2.96895,1.80258 6.36205,2.86292 10.07324,2.86292c10.49738,0 19.08614,-8.58876 19.08614,-19.08614v-5.3017c0,-1.80258 -1.37844,-3.18102 -3.18102,-3.18102c-1.80258,0 -3.18102,1.37844 -3.18102,3.18102v5.3017c0,6.99825 -5.72584,12.72409 -12.72409,12.72409c-2.54482,0 -4.87757,-0.74224 -6.89222,-2.01465c-0.84827,-0.53017 -1.69655,-1.16638 -2.33275,-1.90861c-0.10603,-0.10603 -0.21207,-0.21207 -0.21207,-0.3181c-0.21207,-0.21207 -0.42414,-0.53017 -0.6362,-0.84827c-0.10603,-0.10603 -0.21207,-0.21207 -0.3181,-0.42414c-0.21207,-0.3181 -0.42414,-0.6362 -0.6362,-0.95431c0,-0.10603 -0.10603,-0.10603 -0.10603,-0.21207c-0.21207,-0.42414 -0.42414,-0.84827 -0.6362,-1.27241c-0.10603,-0.10603 -0.10603,-0.3181 -0.21207,-0.42414c-0.10603,-0.3181 -0.21207,-0.6362 -0.3181,-0.95431c0,-0.21207 -0.10603,-0.3181 -0.10603,-0.53017c-0.10603,-0.3181 -0.10603,-0.6362 -0.21207,-0.95431c0,-0.10603 0,-0.3181 -0.10603,-0.42414c0,-0.21207 0,-0.74224 0,-1.27241c0,-4.3474 2.22672,-8.37669 5.93791,-10.70944c1.16637,-0.74224 1.69655,-2.12068 1.37844,-3.49912c-0.10603,-0.42414 -0.21207,-0.95431 -0.53017,-1.37844c-1.06034,-1.48448 -1.59051,-3.07499 -1.59051,-4.87757c0,-4.13533 2.96895,-7.52842 6.89222,-8.37669c2.33275,4.45343 6.89222,7.52842 12.29995,7.52842c1.80258,0 3.18102,-1.37844 3.18102,-3.18102c0,-1.80258 -1.37844,-3.18102 -3.18102,-3.18102c-3.28706,0 -6.14998,-2.22672 -7.10428,-5.19567c-0.10603,-0.3181 -0.21207,-0.6362 -0.21207,-0.95431c0,-0.10603 0,-0.10603 0,-0.21207c0,-0.3181 -0.10603,-0.6362 -0.10603,-1.06034c0,-4.13533 3.28706,-7.42239 7.42239,-7.42239c1.59051,0 3.18102,0.53017 4.45343,1.48448c0.95431,0.74224 2.22672,0.84827 3.28706,0.3181c1.06034,-0.53017 1.80258,-1.59051 1.80258,-2.86292c0,0 0,0 0,-0.10603c0,-3.49912 2.86292,-6.25601 6.36205,-6.25601c3.49913,0 6.36205,2.86292 6.36205,6.36205v75.2842c0,6.99825 -5.72584,12.72409 -12.72409,12.72409c-5.40774,0 -10.17927,-3.39309 -11.98185,-8.48273c-0.42414,-1.37844 -1.80258,-2.22672 -3.18102,-2.12068h-0.3181c-0.10603,0 -0.3181,0 -0.42414,0c-6.99825,0 -12.72409,-5.72584 -12.72409,-12.72409c0,-1.80258 -1.37844,-3.18102 -3.18102,-3.18102c-1.80258,0 -3.18102,1.37844 -3.18102,3.18102c0,10.07324 7.95256,18.44993 17.91976,19.08614c3.18102,6.46808 9.75514,10.60341 17.07149,10.60341c10.49737,0 19.08614,-8.58876 19.08614,-19.08614v-75.2842c0,-6.89222 -5.72584,-12.61806 -12.72409,-12.61806z" fill="#444b54"></path><path d="M39.06159,79.21382h-5.3017c-1.80258,0 -3.18102,-1.37844 -3.18102,-3.18102c0,-1.80258 1.37844,-3.18102 3.18102,-3.18102h5.3017c1.80258,0 3.18102,1.37844 3.18102,3.18102c0,1.80258 -1.37844,3.18102 -3.18102,3.18102z" fill="#444b54"></path><g><path d="M135.55261,78.57761c-4.09927,0 -7.42239,3.32312 -7.42239,7.42239c0,4.09927 3.32312,7.42239 7.42239,7.42239c4.09927,0 7.42239,-3.32312 7.42239,-7.42239c0,-4.09927 -3.32312,-7.42239 -7.42239,-7.42239zM126.00955,45.70705c-4.09927,0 -7.42239,3.32312 -7.42239,7.42239c0,4.09927 3.32312,7.42239 7.42239,7.42239c4.09927,0 7.42239,-3.32312 7.42239,-7.42239c0,-4.09927 -3.32312,-7.42239 -7.42239,-7.42239zM126.00955,111.44818c-4.09927,0 -7.42239,3.32312 -7.42239,7.42239c0,4.09927 3.32312,7.42239 7.42239,7.42239c4.09927,0 7.42239,-3.32312 7.42239,-7.42239c0,-4.09927 -3.32312,-7.42239 -7.42239,-7.42239z" fill="#ffffff"></path><path d="M120.70784,116.74989c-0.84827,0 -1.59051,-0.3181 -2.22672,-0.95431l-10.70944,-10.70944h-14.6327c-1.80258,0 -3.18102,-1.37844 -3.18102,-3.18102c0,-1.80258 1.37844,-3.18102 3.18102,-3.18102h15.90511c0.84827,0 1.69655,0.3181 2.22672,0.95431l11.66375,11.66375c1.27241,1.27241 1.27241,3.28706 0,4.45343c-0.6362,0.6362 -1.37844,0.95431 -2.22672,0.95431zM109.04409,73.27591h-15.90511c-1.80258,0 -3.18102,-1.37844 -3.18102,-3.18102c0,-1.80258 1.37844,-3.18102 3.18102,-3.18102h14.6327l10.70944,-10.70944c1.27241,-1.27241 3.28706,-1.27241 4.45343,0c1.27241,1.27241 1.27241,3.28706 0,4.45343l-11.66375,11.66375c-0.53017,0.6362 -1.37844,0.95431 -2.22672,0.95431zM128.13023,89.18102h-34.99125c-1.80258,0 -3.18102,-1.37844 -3.18102,-3.18102c0,-1.80258 1.37844,-3.18102 3.18102,-3.18102h34.99125c1.80258,0 3.18102,1.37844 3.18102,3.18102c0,1.80258 -1.37844,3.18102 -3.18102,3.18102z" fill="#71c2ff"></path><path d="M135.55261,96.60341c-5.83187,0 -10.60341,-4.77153 -10.60341,-10.60341c0,-5.83188 4.77153,-10.60341 10.60341,-10.60341c5.83188,0 10.60341,4.77153 10.60341,10.60341c0,5.83187 -4.77153,10.60341 -10.60341,10.60341zM135.55261,81.75864c-2.33275,0 -4.24136,1.90861 -4.24136,4.24136c0,2.33275 1.90861,4.24136 4.24136,4.24136c2.33275,0 4.24136,-1.90861 4.24136,-4.24136c0,-2.33275 -1.90861,-4.24136 -4.24136,-4.24136zM126.00955,63.73284c-5.83187,0 -10.60341,-4.77153 -10.60341,-10.60341c0,-5.83187 4.77153,-10.60341 10.60341,-10.60341c5.83187,0 10.60341,4.77153 10.60341,10.60341c0,5.83187 -4.77153,10.60341 -10.60341,10.60341zM126.00955,48.88807c-2.33275,0 -4.24136,1.90861 -4.24136,4.24136c0,2.33275 1.90861,4.24136 4.24136,4.24136c2.33275,0 4.24136,-1.90861 4.24136,-4.24136c0,-2.33275 -1.90861,-4.24136 -4.24136,-4.24136zM98.44068,48.88807c-5.83188,0 -10.60341,-4.77153 -10.60341,-10.60341c0,-5.83187 4.77153,-10.60341 10.60341,-10.60341c5.83187,0 10.60341,4.77153 10.60341,10.60341c0,5.83187 -4.77153,10.60341 -10.60341,10.60341zM98.44068,34.0433c-2.33275,0 -4.24136,1.90861 -4.24136,4.24136c0,2.33275 1.90861,4.24136 4.24136,4.24136c2.33275,0 4.24136,-1.90861 4.24136,-4.24136c0,-2.33275 -1.90861,-4.24136 -4.24136,-4.24136zM126.00955,129.47398c-5.83187,0 -10.60341,-4.77153 -10.60341,-10.60341c0,-5.83187 4.77153,-10.60341 10.60341,-10.60341c5.83187,0 10.60341,4.77153 10.60341,10.60341c0,5.83187 -4.77153,10.60341 -10.60341,10.60341zM126.00955,114.6292c-2.33275,0 -4.24136,1.90861 -4.24136,4.24136c0,2.33275 1.90861,4.24136 4.24136,4.24136c2.33275,0 4.24136,-1.90861 4.24136,-4.24136c0,-2.33275 -1.90861,-4.24136 -4.24136,-4.24136zM98.44068,144.31875c-5.83188,0 -10.60341,-4.77153 -10.60341,-10.60341c0,-5.83187 4.77153,-10.60341 10.60341,-10.60341c5.83187,0 10.60341,4.77153 10.60341,10.60341c0,5.83188 -4.77153,10.60341 -10.60341,10.60341zM98.44068,129.47398c-2.33275,0 -4.24136,1.90861 -4.24136,4.24136c0,2.33275 1.90861,4.24136 4.24136,4.24136c2.33275,0 4.24136,-1.90861 4.24136,-4.24136c0,-2.33275 -1.90861,-4.24136 -4.24136,-4.24136z" fill="#71c2ff"></path></g></g><path d="" fill="none"></path><path d="" fill="none"></path></g></g></svg>